<svg xmlns="http://www.w3.org/2000/svg" viewBox="0 0 256 256"><defs><style>.cls-1,.cls-3{fill:#350032;}.cls-1,.cls-4{stroke:#350032;stroke-miterlimit:10;}.cls-2,.cls-4{fill:#fff;}</style></defs><g id="Livello_2" data-name="Livello 2"><g id="Livello_1-2" data-name="Livello 1"><rect class="cls-1" x="225.2" y="225.8" width="30.3" height="29.7"/><path class="cls-1" d="M255.5,225.41V.5H31.41A31.24,31.24,0,0,0,.5,31.5v224H31.32"/><path class="cls-2" d="M1,32H132.53A255,255,0,0,0,1,255Z"/><path class="cls-3" d="M130.61,32.5A255.44,255.44,0,0,0,1.5,232.79V32.5H130.61m3.87-1H.5v224h1a254.45,254.45,0,0,1,133-224Z"/><path class="cls-4" d="M255.5,31.31A224.06,224.06,0,0,0,31.32,255.5H225.5a30,30,0,0,1,30-30V31.31Z"/></g></g></svg>